<svg id="Layer_1" data-name="Layer 1" xmlns="http://www.w3.org/2000/svg" viewBox="0 0 212.84 212.84"><defs><style>.cls-1{fill:#fff;}.cls-2{fill:none;stroke:#fff;stroke-miterlimit:10;stroke-width:3.57px;}</style></defs><title>woke-branding</title><path class="cls-1" d="M63.13,154.7c-1.1,1.72-2.66,2.51-4.7.78-5.48-4.85-6.73-10.8-4.23-21.61,5.64-23.8,18.32-59.81,26-74.53,1.25-2.35,2.82-2.51,3.91-.63,2.66,4.54,3,10.18-1.57,22.23C77.38,95,69.71,115.4,63,137.63c14.56-23.8,38.67-56.68,54.8-76.25,1.1-1.25,2.66-1.72,3.91.16,3.13,4.54,3.91,8.46,0,20.36-5,14.72-11.59,33.82-17.54,56.52,15.81-25.84,46.19-66.08,60-80.79,1.88-1.88,3.45-1.57,3.76.63.94,5.48-1.1,12.21-9.08,22.7-11.43,15-34.6,43.84-53.55,73-1.25,1.88-2.66,2.66-4.7.78-5.32-4.85-7.2-10.49-4.85-21.61,2.51-11.59,7.83-28.81,13-43.53C94.61,108,76.44,133.56,63.13,154.7Z"/><path class="cls-1" d="M134.85,140.92c3.13,1.1,4.07,5.17,2.35,9.39-1.72,4.07-5.79,6.58-8.93,5.48s-4.07-5.64-2.35-9.39C127.8,142.17,131.72,139.82,134.85,140.92Z"/><rect class="cls-2" x="12.42" y="12.42" width="188" height="188"/></svg>