<?xml version="1.0" encoding="UTF-8" standalone="no"?>
<svg width="14px" height="14px" viewBox="0 0 14 14" version="1.1" xmlns="http://www.w3.org/2000/svg" xmlns:xlink="http://www.w3.org/1999/xlink">
    <!-- Generator: Sketch 41.2 (35397) - http://www.bohemiancoding.com/sketch -->
    <title>Google</title>
    <desc>Created with Sketch.</desc>
    <defs></defs>
    <g id="-" stroke="none" stroke-width="1" fill="none" fill-rule="evenodd">
        <g id="Login-#2" transform="translate(-817.000000, -632.000000)" fill="#FFFFFF">
            <path d="M824.142337,638 L824.142337,640.4 L828.193062,640.4 C828.029808,641.429 826.968661,643.42 824.142337,643.42 C821.703739,643.42 819.714088,641.441 819.714088,639 C819.714088,636.56 821.703739,634.58 824.142337,634.58 C825.529991,634.58 826.458494,635.16 826.989068,635.66 L828.927702,633.83 C827.682895,632.69 826.070767,632 824.142337,632 C820.193645,632 817,635.13 817,639 C817,642.87 820.193645,646 824.142337,646 C828.264485,646 831,643.16 831,639.16 C831,638.7 830.947963,638.35 830.886743,638 L824.142337,638 L824.142337,638 Z" id="Google"></path>
        </g>
    </g>
</svg>