<?xml version="1.0" encoding="UTF-8" standalone="no"?>
<svg width="17px" height="14px" viewBox="0 0 17 14" version="1.1" xmlns="http://www.w3.org/2000/svg" xmlns:xlink="http://www.w3.org/1999/xlink">
    <!-- Generator: Sketch 41.2 (35397) - http://www.bohemiancoding.com/sketch -->
    <title>Twitter</title>
    <desc>Created with Sketch.</desc>
    <defs></defs>
    <g id="-" stroke="none" stroke-width="1" fill="none" fill-rule="evenodd">
        <g id="Login-#2" transform="translate(-685.000000, -632.000000)" fill="#FFFFFF">
            <path d="M700.269873,635.944781 C700.269873,640.615316 696.762048,646 690.347186,646 C688.377448,646 686.544253,645.41529 685,644.412804 C685.273085,644.44494 685.550575,644.461901 685.83247,644.461901 C687.466577,644.461901 688.970308,643.896831 690.163955,642.948798 C688.63732,642.920232 687.349414,641.898106 686.906312,640.493911 C687.118613,640.535867 687.337082,640.558184 687.561716,640.558184 C687.879728,640.558184 688.188051,640.514442 688.480516,640.434101 C686.885169,640.109163 685.683594,638.680865 685.683594,636.968692 L685.683594,636.924058 C686.154006,637.188293 686.691367,637.347191 687.263084,637.365938 C686.327547,636.73213 685.711784,635.650194 685.711784,634.424536 C685.711784,633.776446 685.883563,633.169419 686.183957,632.647198 C687.904394,634.785181 690.474039,636.192948 693.372267,636.340241 C693.313245,636.081362 693.282413,635.811771 693.282413,635.534145 C693.282413,633.582733 694.843403,632 696.769976,632 C697.773344,632 698.679811,632.429382 699.315836,633.116751 C700.110426,632.957852 700.856565,632.664159 701.530469,632.258879 C701.270598,633.083721 700.71738,633.776446 699.996787,634.213862 C700.702404,634.129057 701.374547,633.938915 702,633.657719 C701.532231,634.366512 700.941134,634.988714 700.260182,635.486833 C700.266349,635.63859 700.269873,635.791239 700.269873,635.944781 Z" id="Twitter"></path>
        </g>
    </g>
</svg>