<?xml version="1.0" encoding="utf-8"?>
<!-- Generator: Adobe Illustrator 21.1.0, SVG Export Plug-In . SVG Version: 6.00 Build 0)  -->
<svg version="1.1" id="Layer_1" xmlns="http://www.w3.org/2000/svg" xmlns:xlink="http://www.w3.org/1999/xlink" x="0px" y="0px"
	 viewBox="0 0 92.5 68.4" style="enable-background:new 0 0 92.5 68.4;" xml:space="preserve">
<style type="text/css">
	.st0{fill:#FFFFFF;}
</style>
<path class="st0" d="M55.1,68.1c-0.3,0-1.1-0.1-1.4-0.2c-1.8-0.8-2.3-2.9-2.6-4.8c-0.8-5.2-1.2-10.5-3.2-15.4
	c-0.1-0.3-0.2-0.5-0.5-0.7c-0.7-0.5-1.4,0.4-1.9,1.1c-3.5,5.7-2.4,11.9-4.7,17c-0.4,0.9-1.2,2.1-2,2.8c-1.4,1-2.9,0.2-4.1-1
	c-3.1-3.1-3.6-8.8-4-12.8c-0.4-4.9-0.1-9.4-1-14.3c-0.7-3.8-1.9-7.5-2.4-11.4c-0.5-3.8-0.2-8,2.1-11.2c1.1-1.5,2.6-2.8,4.3-3.4
	c4-1.4,8.3,0.6,12.5,0.7c2.7,0.1,5.2-0.9,7.9-1.2s5.5-0.2,7.7,1.5c2.5,2,3.3,4.9,3.3,8.1C65.2,28,64,34,63.2,39.1
	c-0.9,5.9-0.9,12.7-1.9,18.3c-0.5,3-0.8,5.7-2.4,8.3C57.9,67.2,56.8,68,55.1,68.1z M46.7,45.9c0.2,0,0.5,0,0.7,0.1
	c0.7,0.3,1.1,1,1.4,1.6c2.3,5.4,2.2,11.5,3.7,17.3c0.1,0.6,0.3,1.2,0.7,1.6c1.1,1.3,3.3,0.6,4.4-0.7c1.3-1.4,1.8-3.3,2.2-5.1
	c1.4-6.4,1.3-13.1,2.2-19.6c0.8-6.3,2.5-12.5,2.1-18.8c-0.2-2.2-0.6-4.5-2.2-6.1c-1.9-2-5-2.3-7.7-1.9s-5.4,1.2-8.2,1.2
	c-4.2,0-8.6-2.2-12.6-0.6c-3.7,1.5-5.5,6-5.5,10c-0.1,5.3,1.9,10.3,2.8,15.5c0.8,4.7,0.6,9.5,1,14.2c0.3,4.1,0.9,9.1,4.2,12
	c0.4,0.3,0.8,0.6,1.2,0.7c1.3,0.2,2.3-1.2,2.8-2.5c1.9-5.7,1.7-12.1,4.7-17.2C45.1,46.9,45.9,46,46.7,45.9z"/>
<path class="st0" d="M29.9,38.3c-3.2,1.1-12.6,3.4-21.6-3.7c0,0-4.9-1.3-6.1-2.3C2,31.7,0,25.4,1.4,21.7c1.4-3.3,6.4-9.9,8-15.4
	c0.2-0.7,0.3-3.4,1.5-4.7C11.7,0.9,12.7,1,12.7,1h9.4C22.8,1,23,1.8,23,1.8v4.4c-0.1,0.6-1,0.6-1,0.6v-4c0-0.2,0-0.6-0.3-1
	c-0.4-0.4-0.8-0.4-1.2-0.4c-0.2,0-0.5,0.2-0.5,0.5c0,0.2,0.2,0.4,0.5,0.4c0.4,0,0.4,0,0.5,0.1s0.1,0.2,0.1,0.3v4.8c-0.1,0.9-1,1-1,1
	l0.1-4c0-0.1,0-0.9-0.5-1.3c-0.3-0.3-0.7-0.4-1.3-0.4C18.2,2.8,18,3,18,3.3c0,0.2,0.2,0.4,0.5,0.4c0.6,0,0.7,0.5,0.7,0.7v4.5
	c0,0.6-0.4,0.6-0.4,0.6h-3.3c-0.1,0-0.4-0.1-0.5-0.3c-0.1-0.3-0.1-1.1-0.1-1.1h1.5c0,0.2,0.2,0.4,0.4,0.4s0.4-0.2,0.4-0.4V6.8
	c0-0.2-0.1-0.4-0.4-0.4s-0.4,0.2-0.4,0.4v0.5h-2.7c-0.4,0-0.6-0.1-0.9-0.4S12.5,6,12.5,6V4.4c0-0.2-0.2-0.4-0.4-0.4
	s-0.4,0.3-0.4,0.5V6c0,0,0,1,0.6,1.6C12.6,7.9,13,8,13.5,8.1C13.3,8.7,13,9.9,13,10.9c0,0.8,0.2,2.1,0.3,3.4
	c0.1,0.9,0.2,1.8,0.3,2.5c0.1,1.7-0.1,4.8-0.4,5.7c-0.7,0.8-1.1,1.5-1.1,1.5c-0.1,0.2,0,0.5,0.2,0.6c0.1,0,0.1,0.1,0.2,0.1
	c0.2,0,0.3-0.1,0.4-0.2c0,0,2.2-4,6.5-3.9c3.5,0.1,4.9,2.3,5.5,3.2c0.1,0.2,0.2,0.3,0.2,0.4c0.2,0.2,0.4,0.2,0.6,0.1
	c0.2-0.2,0.2-0.4,0.1-0.6c-0.1-0.1-0.1-0.2-0.2-0.3c-0.3-0.4-0.7-1.1-1.4-1.8c0.7-0.5,2.1-1.4,4.3-1.8c0.1-0.3,0.2-0.6,0.3-0.9
	c-2.8,0.4-4.6,1.6-5.3,2.1c-1-0.7-2.3-1.2-4.1-1.3c-2.2,0-3.9,0.8-5.1,1.8c0.2-1.4,0.3-3.4,0.2-4.7c-0.1-0.8-0.2-1.7-0.3-2.6
	c-0.2-1.2-0.3-2.5-0.3-3.3c0-0.6,0.1-1.2,0.2-1.8c0,0.2,0.1,0.6,0.3,0.9c0.3,0.4,0.9,0.5,1.1,0.5H19c0.1,0,0.6,0,1-0.3
	c0.3-0.3,0.4-0.7,0.4-0.7s1.7-0.1,1.8-1.9c0,0,0.6-0.1,1.1-0.5c0.6-0.5,0.6-1,0.6-1.1V1.8c0-0.6-0.4-1.8-1.6-1.8H13
	c-0.2,0-1.8,0-2.9,1c-1,1-1.4,4.4-1.5,5.1c-1,4.5-7.4,12.8-8.1,15.3C-1,27.2,1.6,33,1.6,33.1l0.1,0.1l0.1,0.1c0.1,0,1.7,1.1,6,2.2
	c5,3.9,10.3,5,14.5,5c3.8,0,6.6-0.8,8-1.3C30.1,38.9,30,38.6,29.9,38.3z"/>
<path class="st0" d="M23.7,32.5c-6.8,3.7-11.6-1.4-11.8-1.6s-0.5-0.2-0.6,0c-0.2,0.2-0.2,0.5,0,0.6c0,0,3,3.2,7.6,3.2
	c1.6,0,3.4-0.4,5.3-1.4c0.2-0.1,0.3-0.4,0.2-0.6C24.2,32.5,23.9,32.4,23.7,32.5z"/>
<path class="st0" d="M92,21.4c-0.7-2.5-7.1-10.8-8.1-15.3c-0.2-0.7-0.5-4-1.5-5.1c-1.1-1-2.7-1-2.9-1h-9.3c-1.2,0-1.6,1.2-1.6,1.8V6
	c0,0.1,0,0.6,0.6,1.1c0.5,0.4,1.1,0.5,1.1,0.5c0.1,1.8,1.8,1.9,1.8,1.9s0.1,0.4,0.4,0.7c0.4,0.3,0.9,0.3,1,0.3H77
	c0.2,0,0.8-0.1,1.1-0.5c0.2-0.3,0.3-0.7,0.3-0.9c0.1,0.6,0.2,1.2,0.2,1.8c0,0.8-0.1,2.1-0.3,3.3c-0.1,0.9-0.2,1.8-0.3,2.6
	c-0.1,1.3,0,3.3,0.2,4.7c-1.2-1-2.9-1.8-5.1-1.8C71.3,19.8,70,20.3,69,21c-0.7-0.5-2.4-1.6-5-2c0,0.3,0.1,0.6,0.1,0.9
	c2.1,0.4,3.5,1.2,4.2,1.7c-0.7,0.7-1.1,1.4-1.4,1.8c-0.1,0.1-0.1,0.2-0.2,0.3c-0.1,0.2-0.1,0.4,0.1,0.6c0.2,0.1,0.4,0.1,0.6-0.1
	c0-0.1,0.1-0.2,0.2-0.4c0.6-0.9,2-3.1,5.5-3.2c4.3-0.1,6.5,3.9,6.5,3.9c0.1,0.1,0.2,0.2,0.4,0.2c0.1,0,0.1-0.1,0.2-0.1
	c0.2-0.1,0.3-0.4,0.2-0.6c0,0-0.4-0.7-1.1-1.5c-0.3-0.9-0.5-4-0.4-5.7c0.1-0.7,0.2-1.6,0.3-2.5c0.1-1.3,0.3-2.6,0.3-3.4
	c0-1-0.3-2.2-0.5-2.8c0.5-0.1,0.9-0.2,1.2-0.5C80.8,7,80.8,6,80.8,6V4.5c0-0.2-0.2-0.5-0.4-0.5S80,4.2,80,4.4V6c0,0,0,0.6-0.3,0.9
	s-0.5,0.4-0.9,0.4c-1,0-2.4,0-2.7,0V6.8c0-0.2-0.1-0.4-0.4-0.4s-0.4,0.2-0.4,0.4v1.3c0,0.2,0.2,0.4,0.4,0.4s0.4-0.2,0.4-0.4
	c0.4,0,0.5,0,1.5,0c0,0,0,0.8-0.1,1.1c-0.1,0.2-0.4,0.3-0.5,0.3h-3.3c0,0-0.4,0-0.4-0.6V4.4c0-0.2,0.1-0.7,0.7-0.7
	c0.3,0,0.5-0.2,0.5-0.4c0-0.3-0.2-0.5-0.4-0.5c-0.6,0-1,0.1-1.3,0.4c-0.5,0.4-0.5,1.2-0.5,1.3l0.1,4c0,0-0.9-0.1-1-1V2.7
	c0-0.1,0-0.2,0.1-0.3c0.1-0.1,0.1-0.1,0.5-0.1c0.3,0,0.5-0.2,0.5-0.4c0-0.3-0.3-0.5-0.5-0.5c-0.4,0-0.8,0-1.2,0.4
	c-0.3,0.4-0.3,0.8-0.3,1v4c0,0-0.9,0-1-0.6V1.8c0,0,0.2-0.8,0.9-0.8h9.4c0,0,1-0.1,1.8,0.6c1.1,1.2,1.2,4,1.5,4.7
	c1.6,5.5,6.6,12.2,8,15.4c1.4,3.6-0.6,10-0.8,10.6c-1.2,1.1-6.1,2.3-6.1,2.3c-8.7,6.9-17.9,4.9-21.3,3.8c-0.1,0.3-0.1,0.6-0.2,0.9
	c1.5,0.5,4.1,1.2,7.5,1.2c4.2,0,9.5-1.1,14.5-5c4.3-1.1,5.9-2.2,6-2.2l0.2-0.2C90.9,33,93.6,27.2,92,21.4z"/>
<path class="st0" d="M68.1,32.7c-0.1,0.2,0,0.5,0.2,0.6c1.9,1,3.7,1.4,5.3,1.4c4.6,0,7.6-3.2,7.6-3.2c0.2-0.1,0.2-0.4,0-0.6
	c-0.1-0.2-0.4-0.2-0.6,0s-5,5.3-11.8,1.6C68.6,32.4,68.3,32.5,68.1,32.7z"/>
<path class="st0" d="M47.5,19.9c-1.7,0-3.4-0.6-5.1-1.7c-2.6-1.7-4-1.3-4-1.3c-0.3,0.1-0.5-0.1-0.6-0.3s0.1-0.5,0.3-0.6
	c0.1,0,1.8-0.5,4.9,1.4c2.6,1.7,4.9,2,7.3,1c0.3-0.1,0.5,0,0.7,0.3c0.1,0.3,0,0.5-0.3,0.7C49.6,19.6,48.5,19.9,47.5,19.9z"/>
</svg>
