<?xml version="1.0" encoding="utf-8"?>
<!-- Generator: Adobe Illustrator 21.1.0, SVG Export Plug-In . SVG Version: 6.00 Build 0)  -->
<svg version="1.1" id="Layer_1" xmlns="http://www.w3.org/2000/svg" xmlns:xlink="http://www.w3.org/1999/xlink" x="0px" y="0px"
	 viewBox="0 0 56.2 77.3" style="enable-background:new 0 0 56.2 77.3;" xml:space="preserve">
<style type="text/css">
	.st0{fill:#37B88A;}
</style>
<title>54 all</title>
<path class="st0" d="M51.8,13C43.4-0.1,26-3.9,13,4.4C1.1,12.1-3.3,27.3,2.7,40.1c0.6,1.1,1.2,2.3,1.9,3.3l22.1,33.2
	c0.5,0.7,1.5,0.9,2.3,0.4c0.2-0.1,0.3-0.3,0.4-0.4l22-33c0.8-1.2,1.6-2.5,2.2-3.8C57.7,31.1,56.9,21,51.8,13z M50.9,38.6
	c-0.6,1.2-1.2,2.3-2,3.4L28.1,73.2l-21-31.5c-0.6-0.9-1.2-1.9-1.7-2.9c-5.9-12.5-0.5-27.5,12-33.4s27.5-0.5,33.4,12
	C54,24.1,54,31.8,50.9,38.6L50.9,38.6z"/>
<path class="st0" d="M28.1,18.5c-5.3,0-9.5,4.3-9.5,9.5s4.3,9.5,9.5,9.5c5.3,0,9.5-4.3,9.5-9.5C37.6,22.8,33.4,18.5,28.1,18.5z
	 M28.1,34.6c-3.6,0-6.5-2.9-6.5-6.5c0-3.6,2.9-6.5,6.5-6.5c3.6,0,6.5,2.9,6.5,6.5C34.6,31.7,31.7,34.6,28.1,34.6
	C28.1,34.6,28.1,34.6,28.1,34.6z"/>
</svg>
