<?xml version="1.0" encoding="utf-8"?>
<!-- Generator: Adobe Illustrator 21.1.0, SVG Export Plug-In . SVG Version: 6.00 Build 0)  -->
<svg version="1.1" id="Layer_1" xmlns="http://www.w3.org/2000/svg" xmlns:xlink="http://www.w3.org/1999/xlink" x="0px" y="0px"
	 viewBox="0 0 100 100.5" style="enable-background:new 0 0 100 100.5;" xml:space="preserve">
<style type="text/css">
	.st0{fill:#FFFFFF;}
</style>
<path class="st0" d="M63.4,97.2c-0.4,0-0.7,0-1-0.1c-4.2-0.9-5-6.8-5.3-8.8c-0.6-4.4-2.7-17.9-4.1-22c-1.5-4.6-2.3-4.6-3-4.6
	s-3,2.2-4.7,9.1c-0.9,3.7-1.6,7.9-2.3,11.3c-0.5,2.9-0.9,5-1.2,5.9c-0.1,0.3-0.2,0.6-0.3,1.1c-0.6,2.6-1.9,8-6.3,8
	c-4.8,0-8.5-5.4-10.8-16.2c-1.2-5.6-1.4-13.7-1.6-19.6c-0.1-2.2-0.1-4.2-0.2-5.3c-0.3-4-2.5-12.2-3.3-14.8c-2-6.3-2.5-14.4-1.4-22.2
	c0.9-6.7,6-13.5,15.2-13.5c2.5,0,4.9,0.3,7.3,0.8c2.2,0.5,4.5,1.3,6.8,1.5c6,0.4,11.5-2,15.6-2.5C67.1,4.8,71.4,5.5,75,8l0.1,0.1
	c6,4.2,6.4,11.2,5,26.4c-0.3,3-0.7,5.3-1.3,8.3c-0.6,3-1.2,6.7-2,12.5c-0.7,5.6-1.1,9.9-1.4,14.1s-0.6,8.2-1.3,13.2
	c-1.1,8.1-4.6,11.6-6.6,13C66.4,96.7,64.8,97.2,63.4,97.2z M50,59.7c2.4,0,3.5,1.9,4.9,6c1.5,4.6,3.7,19,4.2,22.4
	c0.6,4.4,1.8,6.7,3.7,7.1c1.1,0.2,2.6-0.2,3.9-1.1c1.7-1.2,4.7-4.3,5.8-11.6c0.7-5,1-8.9,1.3-13.1s0.6-8.5,1.4-14.2
	c0.8-5.9,1.5-9.6,2-12.6c0.5-2.9,1-5.1,1.2-8.1c1.4-14.4,1.1-21-4.1-24.6c-5.7-4-11.6-3-16.2-1.5c-2.3,0.8-8.8,2.4-14.8,0.7
	c-2.5-0.7-5.7-1.3-10-1.3c-8.1,0-12.5,5.8-13.3,11.7c-1,7.5-0.5,15.2,1.3,21.3c0.8,2.6,3,11,3.4,15.2c0.1,1.2,0.1,3.1,0.2,5.4
	c0.1,5.8,0.3,13.8,1.5,19.2c2.1,9.5,5.1,14.6,8.8,14.6c2.6,0,3.6-3.3,4.3-6.5c0.1-0.5,0.2-0.9,0.3-1.2c0.2-0.8,0.7-3.1,1.2-5.7
	c0.6-3.4,1.4-7.6,2.3-11.4C44.9,63.9,47.5,59.7,50,59.7z"/>
<path class="st0" d="M51.3,16.8c-2.8,0-5.7-1-8.6-2.9c-4.2-2.8-6.6-2.2-6.6-2.2c-0.5,0.1-1.1-0.2-1.2-0.7c-0.2-0.5,0.1-1.1,0.6-1.2
	c0.3-0.1,3.2-0.9,8.3,2.4c4.3,2.8,8.1,3.3,12,1.6c0.5-0.2,1.1,0,1.3,0.5s0,1.1-0.5,1.3C54.8,16.4,53,16.8,51.3,16.8z"/>
<path class="st0" d="M13.9,74l-2.1-11.6c-0.2-1.1-1-2.1-2-2.5L6,58.4l4.2-1.7c0.9-0.4,1.6-1.1,1.9-2l1.8-5.3l1.8,5.3
	c0.3,0.9,1,1.6,1.9,2l4.2,1.7L18,60c-1.1,0.4-1.8,1.4-2,2.5L13.9,74z M11.3,58.4c1.3,0.8,2.3,2.1,2.5,3.6l0.1,0.5L14,62
	c0.3-1.5,1.2-2.9,2.5-3.6c-1.2-0.6-2.1-1.6-2.6-2.8C13.4,56.9,12.5,57.9,11.3,58.4z"/>
<path class="st0" d="M87,64.9l-1.9-6.3c-0.4-1.4-1.5-2.6-2.8-3.1l-4-1.6l4.1-1.6c1.3-0.5,2.3-1.6,2.8-2.9l0,0l1.8-5.3l1.8,5.3
	c0.5,1.3,1.5,2.4,2.8,2.9l4.1,1.6l-4,1.6c-1.4,0.6-2.4,1.7-2.8,3.1L87,64.9z M83.7,54c1.6,0.8,2.8,2.2,3.3,3.9
	c0.6-1.7,1.8-3.1,3.3-3.9c-1.5-0.8-2.7-2-3.3-3.6C86.4,51.9,85.2,53.2,83.7,54z"/>
<path class="st0" d="M65.1,37l-1.6-5.4c-0.4-1.2-1.2-2.2-2.4-2.7l-3.3-1.3l3.5-1.4c1.1-0.4,2-1.4,2.4-2.5l0,0l1.5-4.5l1.5,4.5
	c0.4,1.1,1.3,2,2.4,2.5l3.5,1.4L69.1,29c-1.2,0.5-2.1,1.4-2.4,2.7L65.1,37z M62.9,27.6c1,0.6,1.7,1.5,2.2,2.5c0.5-1,1.3-1.9,2.2-2.5
	c-0.9-0.6-1.7-1.4-2.2-2.4C64.6,26.2,63.8,27.1,62.9,27.6z"/>
<path class="st0" d="M11.5,22.3l-1.5-5c-0.3-0.9-0.9-1.6-1.8-2L5.1,14l3.2-1.3c0.8-0.3,1.5-1,1.8-1.9l1.4-4.1l1.4,4.1
	c0.3,0.9,0.9,1.5,1.8,1.9l3.2,1.3l-3.1,1.3c-0.9,0.4-1.5,1.1-1.8,2L11.5,22.3z M10.1,14.1c0.6,0.4,1.1,1,1.4,1.6
	c0.4-0.6,0.8-1.2,1.4-1.6c-0.6-0.4-1-0.9-1.4-1.5C11.1,13.2,10.6,13.7,10.1,14.1z"/>
</svg>
