<?xml version="1.0" encoding="utf-8"?>
<!-- Generator: Adobe Illustrator 21.1.0, SVG Export Plug-In . SVG Version: 6.00 Build 0)  -->
<svg version="1.1" id="Layer_1" xmlns="http://www.w3.org/2000/svg" xmlns:xlink="http://www.w3.org/1999/xlink" x="0px" y="0px"
	 viewBox="0 0 100 125" style="enable-background:new 0 0 100 125;" xml:space="preserve">
<style type="text/css">
	.st0{display:none;}
	.st1{display:inline;}
</style>
<g class="st0">
	<rect x="-293" y="-861" class="st1" width="1280" height="1212.6"/>
</g>
<g>
	<rect x="48.6" y="9.5" width="2.3" height="11.9"/>
	<rect x="34.4" y="12.1" transform="matrix(0.9381 -0.3464 0.3464 0.9381 -4.0517 13.43)" width="2.3" height="11.9"/>
	<rect x="58" y="17.1" transform="matrix(0.4462 -0.8949 0.8949 0.4462 19.1124 67.3173)" width="11.9" height="2.3"/>
	<path d="M70.2,27c-6.6,0-13.6,4.7-17.7,7.9c-0.7,0.6-1.6,0.9-2.5,0.9s-1.7-0.3-2.5-0.9C43.4,31.6,36.5,27,29.8,27h0l0,2
		c6.2,0,13,4.7,16.5,7.5c1.1,0.9,2.4,1.3,3.7,1.3s2.7-0.5,3.7-1.3C57.2,33.6,64,29,70.2,29c2.8,0,5.1,0.9,7.1,2.9
		c7,6.7,4.7,17.3,2.7,23c-1.3,3.7-3.1,7.4-5.4,11.4c-0.6,0.9-1.2,1.9-1.8,2.8c-1.7,2.6-3.6,5.3-4.3,8.9c-0.3,1.7-0.6,3.5-0.8,5.2
		c-0.1,0.9-0.2,1.7-0.4,2.6C66.9,88,65.1,89,63.6,89c-0.7,0-2.1-0.2-3-1.8l-6.1-9.8c-1-1.6-2.7-2.5-4.5-2.5s-3.5,0.9-4.5,2.5
		l-6.1,9.8c-1,1.5-2.3,1.8-3,1.8c-1.5,0-3.3-1.1-3.7-3.4c-0.1-0.8-0.3-1.7-0.4-2.6c-0.2-1.7-0.5-3.5-0.8-5.2
		c-0.7-3.6-2.5-6.3-4.3-8.9c-0.6-0.9-1.2-1.8-1.8-2.8c-2.4-4-4.1-7.7-5.4-11.4c-2-5.7-4.3-16.3,2.7-23c2-1.9,4.3-2.9,7.1-2.9v-2
		c-3,0-5.9,0.9-8.5,3.4C14.4,37,15.2,47,18.1,55.5c1.4,4.1,3.4,8.1,5.6,11.8c2.2,3.7,4.9,6.7,5.8,11c0.5,2.5,0.8,5.1,1.2,7.7
		c0.5,3.2,3.1,5,5.6,5c1.8,0,3.6-0.9,4.7-2.7l6.1-9.8c0.7-1.1,1.7-1.6,2.8-1.6s2.1,0.5,2.8,1.6l6.1,9.8c1.2,1.9,2.9,2.7,4.7,2.7
		c2.6,0,5.1-1.8,5.6-5c0.4-2.5,0.7-5.1,1.2-7.7c0.9-4.4,3.6-7.4,5.8-11c2.2-3.7,4.2-7.7,5.6-11.8c3-8.5,3.7-18.5-3.2-25.1
		C76.1,27.9,73.2,27,70.2,27z"/>
	<path d="M44.7,57.5c0,3.2,2.4,5.9,5.3,5.9s5.3-2.6,5.3-5.9h-2c0,2.1-1.4,3.8-3.2,3.8s-3.2-1.7-3.2-3.8H44.7z"/>
	<path d="M42.4,46.1c1.7,0,3.1,1.7,3.1,3.7h2c0-3.2-2.3-5.8-5.2-5.8s-5.2,2.6-5.2,5.8h2C39.2,47.7,40.7,46.1,42.4,46.1z"/>
	<path d="M57.6,46.1c1.7,0,3.1,1.7,3.1,3.7h2c0-3.2-2.3-5.8-5.2-5.8s-5.2,2.6-5.2,5.8h2C54.5,47.7,55.9,46.1,57.6,46.1z"/>
</g>
</svg>
