<?xml version="1.0" encoding="utf-8"?>
<!-- Generator: Adobe Illustrator 21.1.0, SVG Export Plug-In . SVG Version: 6.00 Build 0)  -->
<svg version="1.1" id="Layer_1" xmlns="http://www.w3.org/2000/svg" xmlns:xlink="http://www.w3.org/1999/xlink" x="0px" y="0px"
	 viewBox="0 0 72.6 92.1" style="enable-background:new 0 0 72.6 92.1;" xml:space="preserve">
<style type="text/css">
	.st0{fill:#FFFFFF;}
</style>
<path class="st0" d="M33.7,11.5c-2.8,0-5.7-1-8.6-2.9c-4.2-2.8-6.6-2.2-6.6-2.2c-0.5,0.1-1.1-0.2-1.2-0.7c-0.2-0.5,0.1-1.1,0.6-1.2
	c0.3-0.1,3.2-0.9,8.3,2.4c4.3,2.8,8.1,3.3,12,1.6c0.5-0.2,1.1,0,1.3,0.5s0,1.1-0.5,1.3C37.2,11.1,35.4,11.5,33.7,11.5z"/>
<path class="st0" d="M72.6,25.9c0-6.4-4-11.8-9.6-14C62.3,7.8,60.7,5,57.8,3c-6.4-4.5-13-2.9-17.8-1.7c-0.6,0-1.1,0.2-1.7,0.4
	c-4.6,1-7.4,0.8-7.4,0.8S28,2.2,26.2,1.8c-2.6-0.6-5.9-1.5-10.4-1.5C6.5,0.3,1.5,7.1,0.5,13.8C-0.6,21.6,0,29.6,1.9,36
	c0.8,2.6,3,10.9,3.3,14.8c0.1,1.2,0.1,3.1,0.2,5.4C5.5,62.1,5.8,70.1,7,75.8C9.3,86.5,13,92,17.8,92c4.4,0,5.7-5.4,6.3-8
	c0.1-0.4,0.2-0.8,0.3-1.1c0.3-0.9,0.7-3,1.2-6c0.6-3.3,1.4-7.5,2.2-11.2c1.6-7,4-9.1,4.7-9.1c0.7,0,1.4,0,3,4.6
	c1.4,4.2,3.5,17.6,4.1,22c0.3,2,1.1,7.9,5.3,8.8c0.3,0.1,0.7,0.1,1,0.1c1.4,0,3-0.5,4.4-1.6c2-1.4,5.5-4.9,6.6-13
	c0.7-5,1-9,1.3-13.2c0.3-4.1,0.6-8.4,1.4-14c0.6-4.2,1.1-7.3,1.5-9.6C67.6,39,72.6,33,72.6,25.9z M57.5,49.9
	c-0.7,5.7-1.1,10-1.4,14.1c-0.3,4.2-0.6,8.1-1.3,13.1c-1,7.3-4,10.4-5.7,11.6c-1.3,0.9-2.8,1.4-3.9,1.1c-1.9-0.4-3.1-2.7-3.7-7.1
	C41,79.4,38.9,65,37.3,60.3c-1.4-4-2.4-6-4.9-6s-5.1,4.2-6.6,10.7c-0.9,3.8-1.6,7.9-2.3,11.3c-0.5,2.7-0.9,5-1.2,5.8
	c-0.1,0.3-0.2,0.7-0.3,1.2c-0.7,3.1-1.7,6.5-4.3,6.5c-3.7,0-6.8-5-8.8-14.6C7.7,69.8,7.5,61.8,7.4,56c-0.1-2.4-0.1-4.3-0.2-5.5
	c-0.3-4.1-2.5-12.4-3.4-15.2C1.9,29.2,1.4,21.5,2.5,14C3.3,8.1,7.7,2.2,15.8,2.2c4.3,0,7.4,0.7,10,1.2c1.8,0.4,3.4,0.8,5,0.7
	c0.5,0.1,3.4,0.3,8-0.7C39.4,3.3,40,3.1,40.6,3c4.7-1.1,10.5-2.5,16.2,1.5C59,6,60.3,8.1,61,11.1c-1.1-0.3-2.2-0.4-3.4-0.4
	c-8.3,0-15.1,6.8-15.1,15.1s6.8,15.1,15.1,15.1c0.5,0,0.9,0,1.4-0.1C58.5,43.1,58,46.1,57.5,49.9z M57.5,39
	c-7.2,0-13.1-5.9-13.1-13.1s5.9-13.1,13.1-13.1s13.1,5.9,13.1,13.1S64.7,39,57.5,39z"/>
<path class="st0" d="M56.6,35l-5.4-8.3c-0.3-0.5-0.2-1.1,0.3-1.4s1.1-0.2,1.4,0.3l3.5,5.4l6.2-11.8c0.3-0.5,0.9-0.7,1.3-0.4
	c0.5,0.3,0.7,0.9,0.4,1.3L56.6,35z"/>
</svg>
