<?xml version="1.0" encoding="utf-8"?>
<!-- Generator: Adobe Illustrator 21.1.0, SVG Export Plug-In . SVG Version: 6.00 Build 0)  -->
<svg version="1.1" id="Layer_1" xmlns="http://www.w3.org/2000/svg" xmlns:xlink="http://www.w3.org/1999/xlink" x="0px" y="0px"
	 viewBox="0 0 48 87.9" style="enable-background:new 0 0 48 87.9;" xml:space="preserve">
<style type="text/css">
	.st0{fill:#37B88A;}
</style>
<g>
	<path class="st0" d="M40.5,87.9h-33c-4.2,0-7.5-3.4-7.5-7.5V7.5C0,3.4,3.4,0,7.5,0h33c2,0,3.9,0.8,5.3,2.2C47.3,3.6,48,5.5,48,7.5
		v72.9C48,84.5,44.7,87.9,40.5,87.9z M7.5,1C3.9,1,1,3.9,1,7.5v72.9c0,3.6,2.9,6.5,6.5,6.5h33c3.6,0,6.5-2.9,6.5-6.5V7.5
		c0-1.7-0.7-3.4-1.9-4.6C43.9,1.7,42.3,1,40.5,1L7.5,1L7.5,1z M24,84.9c-2.6,0-4.7-2.1-4.7-4.7c0-2.6,2.1-4.7,4.7-4.7
		c2.6,0,4.7,2.1,4.7,4.7C28.7,82.8,26.6,84.9,24,84.9z M24,76.6c-2,0-3.7,1.7-3.7,3.7s1.7,3.7,3.7,3.7s3.7-1.7,3.7-3.7
		S26.1,76.6,24,76.6z M44.7,73.6H3.4V12.8h41.3V73.6z M4.4,72.6h39.3V13.8H4.4V72.6z M31.7,8.9H16.3c-0.9,0-1.7-0.8-1.7-1.7
		s0.8-1.7,1.7-1.7h15.5c0.9,0,1.7,0.8,1.7,1.7S32.7,8.9,31.7,8.9z M16.3,6.5c-0.4,0-0.7,0.3-0.7,0.7s0.3,0.7,0.7,0.7h15.5
		c0.4,0,0.7-0.3,0.7-0.7s-0.3-0.7-0.7-0.7H16.3z"/>
</g>
<g>
	<g>
		<path class="st0" d="M36.6,44.6c-0.5,0-1-0.2-1.3-0.5c-0.4-0.4-0.6-0.8-0.6-1.3c-0.1-5.5-4.6-9.9-10.1-9.9l-0.1,0l0,0
			c-1.1,0-1.9-0.8-1.9-1.9c0-0.5,0.2-1,0.5-1.3S24,29,24.5,29l0.2,0c3.6,0,7.1,1.4,9.7,3.9c2.7,2.6,4.1,6,4.2,9.8
			C38.5,43.7,37.7,44.6,36.6,44.6L36.6,44.6z M24.7,31.8c6,0,11,4.9,11.1,10.9c0,0.2,0.1,0.5,0.3,0.6c0.2,0.2,0.4,0.3,0.6,0.3v0.5
			l0-0.5c0.5,0,0.9-0.4,0.9-0.9c0-3.4-1.4-6.7-3.9-9.1c-2.4-2.3-5.6-3.6-9-3.6l-0.2,0c-0.2,0-0.5,0.1-0.6,0.3
			c-0.2,0.2-0.3,0.4-0.3,0.6c0,0.5,0.4,0.9,0.9,0.9L24.7,31.8z"/>
	</g>
</g>
<g>
	<g>
		<path class="st0" d="M30.8,44.8c-0.5,0-1-0.2-1.3-0.5c-0.4-0.4-0.6-0.8-0.6-1.3c0-1.2-0.5-2.3-1.3-3.1c-0.8-0.8-1.9-1.2-3.1-1.2h0
			c-1.1,0-2-0.8-2-1.9c0-1,0.8-1.9,1.9-1.9l0.1,0c2.1,0,4.2,0.8,5.7,2.3c1.6,1.5,2.5,3.6,2.5,5.8C32.7,44,31.9,44.8,30.8,44.8
			L30.8,44.8z M24.4,37.6c1.5,0,2.8,0.5,3.9,1.5c1,1,1.6,2.4,1.6,3.8c0,0.2,0.1,0.5,0.3,0.6c0.2,0.2,0.4,0.3,0.6,0.3v0.5l0-0.5
			c0.5,0,0.9-0.4,0.9-0.9c0-1.9-0.8-3.7-2.2-5.1c-1.4-1.3-3.1-2-5-2l-0.1,0c-0.5,0-0.9,0.4-0.9,0.9C23.5,37.2,23.9,37.6,24.4,37.6
			C24.4,37.6,24.4,37.6,24.4,37.6z"/>
	</g>
</g>
<g>
	<path class="st0" d="M33.9,59.6L33.9,59.6c-3.3-0.3-6.2-1.3-9.5-3.4c-6.8-4.3-11.8-9.8-14.9-16.5c-0.4-0.9-0.8-1.9-1-2.9
		c-1.1-4.2-0.2-5.8,3.5-8.4c0.3-0.2,0.7-0.4,1.2-0.5c2.8-0.4,4.1,1.6,5.3,3.2c0.1,0.2,0.3,0.4,0.4,0.6c1.4,2,1.4,3.7-0.1,5.4
		c-1.9,2.2-2,2.5-0.1,4.6c2.4,2.7,5.1,5.3,8.1,7.9c0.8,0.7,1.3,0.9,1.7,0.9c0.5,0,1.1-0.4,2-1.2c1.1-1,1.9-1.4,2.9-1.4
		c0.7,0,1.5,0.2,2.4,0.8c0.4,0.2,0.8,0.5,1.1,0.7c2.2,1.5,3.2,2.9,3.2,4.3c0,1.6-1.2,3.3-3.9,5.3c-0.5,0.4-1.2,0.5-1.7,0.5
		C34.3,59.5,34.1,59.5,33.9,59.6L33.9,59.6z M13.8,28.8c-0.2,0-0.4,0-0.6,0c-0.3,0-0.5,0.1-0.7,0.3c-3.4,2.5-4.1,3.5-3.1,7.4
		c0.3,1,0.6,1.9,1,2.8c3.1,6.6,7.8,11.8,14.5,16.1c3.1,2,5.9,3,8.9,3.3c0.1,0,0.3,0,0.5-0.1c0.4,0,0.9-0.1,1.2-0.3
		c2.4-1.8,3.5-3.2,3.5-4.5c0-1.1-0.9-2.3-2.8-3.5c-0.4-0.3-0.7-0.5-1.1-0.7c-1.8-1-2.6-0.9-4.1,0.5c-1.1,1-1.8,1.5-2.6,1.5
		c-0.7,0-1.4-0.3-2.4-1.2c-3.1-2.6-5.8-5.3-8.2-8c-2.3-2.5-2-3.4,0.1-5.9c1.1-1.4,1.1-2.5,0-4.2c-0.1-0.2-0.3-0.4-0.4-0.6
		C16.5,30.2,15.6,28.8,13.8,28.8z"/>
</g>
</svg>
