<?xml version="1.0" encoding="utf-8"?>
<!-- Generator: Adobe Illustrator 21.1.0, SVG Export Plug-In . SVG Version: 6.00 Build 0)  -->
<svg version="1.1" id="Layer_1" xmlns="http://www.w3.org/2000/svg" xmlns:xlink="http://www.w3.org/1999/xlink" x="0px" y="0px"
	 viewBox="0 0 90 84.6" style="enable-background:new 0 0 90 84.6;" xml:space="preserve">
<style type="text/css">
	.st0{fill:#37B88A;}
</style>
<path class="st0" d="M27.3,53.7l18.1,15l0,0L27.3,53.7z M45.4,65.2L29,51.6L45.4,65.2L45.4,65.2z M90,29.7v54.9H0V29.7l9.6-6.3V8.3
	h23L45.3,0l12.5,8.3h22.6v15L90,29.7z M80.4,35.6l6-5.1l-6-4V35.6z M37.6,8.3h15.3l-7.6-5.1L37.6,8.3z M12.3,37.7L29,51.6l16.3,13.6
	l0,0l32.3-27.5v-13v-3.3V11H61.9H57H33.4h-5H12.3v10.5v3.3V37.7z M3.7,30.5l6,5v-8.9L3.7,30.5z M87.3,33.4L45.4,68.8l0,0l-18.1-15
	L2.7,33.3v48.6h84.5L87.3,33.4L87.3,33.4z M44.8,50.7c-7.1,0-13.1-5.2-13.1-13.4c0-8.9,6.2-16.5,15.7-16.5C55,20.7,60,26,60,33.2
	c0,6.5-3.6,10.3-7.7,10.3c-1.7,0-3.3-1.2-3.2-3.8H49c-1.5,2.5-3.5,3.8-6.1,3.8c-2.5,0-4.7-2-4.7-5.4c0-5.3,4.2-10.2,10.2-10.2
	c1.9,0,3.5,0.4,4.6,0.9l-1.5,7.8c-0.6,3.3-0.1,4.8,1.3,4.8c2.2,0,4.7-2.9,4.7-7.9c0-6.2-3.7-10.7-10.4-10.7c-7,0-12.9,5.6-12.9,14.3
	c0,7.2,4.7,11.6,11.1,11.6c2.5,0,4.7-0.5,6.5-1.5l0.7,1.9C50.1,50.3,47.7,50.7,44.8,50.7z M50.1,30.4c-0.4-0.1-1.2-0.3-2.2-0.3
	c-3.8,0-6.9,3.6-6.9,7.8c0,1.9,0.9,3.3,2.8,3.3c2.5,0,4.8-3.2,5.3-5.9L50.1,30.4z"/>
</svg>
