<?xml version="1.0" encoding="utf-8"?>
<!-- Generator: Adobe Illustrator 21.1.0, SVG Export Plug-In . SVG Version: 6.00 Build 0)  -->
<svg version="1.1" id="Layer_1" xmlns="http://www.w3.org/2000/svg" xmlns:xlink="http://www.w3.org/1999/xlink" x="0px" y="0px"
	 viewBox="0 0 75.6 92.1" style="enable-background:new 0 0 75.6 92.1;" xml:space="preserve">
<style type="text/css">
	.st0{fill:#FFFFFF;}
</style>
<path class="st0" d="M39.1,10.3c0.5-0.2,0.7-0.8,0.5-1.3s-0.8-0.7-1.3-0.5c-3.9,1.7-7.8,1.2-12-1.6c-5-3.3-7.9-2.5-8.3-2.4
	c-0.5,0.2-0.8,0.7-0.6,1.2c0.2,0.5,0.7,0.8,1.2,0.7c0,0,2.4-0.6,6.6,2.2c3,1.9,5.8,2.9,8.6,2.9C35.5,11.5,37.3,11.1,39.1,10.3z"/>
<path class="st0" d="M42.8,20.5c-6.1,0-11,4.9-11,11s4.9,11,11,11s11-4.9,11-11S48.9,20.5,42.8,20.5z M42.8,40.4c-5,0-9-4-9-9
	s4-9,9-9s9,4,9,9S47.8,40.4,42.8,40.4z"/>
<path class="st0" d="M75.6,59.5L60.4,44.4c0.4-2.7,0.8-4.8,1.2-6.7c0.5-2.9,1-5.2,1.3-8.3C64.3,14.2,64,7.2,57.9,3
	c-6.4-4.5-13-2.9-17.8-1.7c-0.6,0-1.1,0.2-1.7,0.4c-4.6,1-7.4,0.8-7.4,0.8l-0.1,0.2h-0.1c-1.3,0-2.8-0.5-4.6-0.9
	c-2.6-0.6-5.9-1.5-10.4-1.5C6.5,0.3,1.5,7.1,0.5,13.8C-0.6,21.6,0,29.6,1.9,36c0.8,2.6,3,10.9,3.3,14.8c0.1,1.2,0.1,3.1,0.2,5.4
	C5.5,62.1,5.8,70.1,7,75.8C9.3,86.5,13,92,17.8,92c4.4,0,5.7-5.4,6.3-8c0.1-0.4,0.2-0.8,0.3-1.1c0.3-0.9,0.7-3,1.2-6
	c0.6-3.3,1.4-7.5,2.2-11.2c1.6-7,4-9.1,4.7-9.1s1.4,0,3,4.6c1.4,4.2,3.5,17.6,4.1,22c0.3,2,1.1,7.9,5.3,8.8c0.3,0.1,0.7,0.1,1,0.1
	c1.4,0,3-0.5,4.4-1.6c2-1.4,5.5-4.9,6.6-13c0.7-5,1-9,1.3-13.2c0.3-3.9,0.6-8,1.3-13.3l12.3,12.3L75.6,59.5z M71.8,60.4l-14-14
	l0.9-0.9l14.1,14.1L71.8,60.4z M57.6,49.9c-0.7,5.7-1.1,10-1.4,14.1c-0.3,4.2-0.6,8.1-1.3,13.1c-1,7.3-4,10.4-5.7,11.6
	c-1.3,0.9-2.8,1.4-3.9,1.1c-1.9-0.4-3.1-2.7-3.7-7.1C41.1,79.4,39,65,37.4,60.3c-1.4-4-2.4-6-4.9-6s-5.1,4.2-6.6,10.7
	c-0.9,3.8-1.6,7.9-2.3,11.3c-0.5,2.7-0.9,5-1.2,5.8c-0.1,0.3-0.2,0.7-0.3,1.2c-0.7,3.1-1.7,6.5-4.3,6.5c-3.7,0-6.8-5-8.8-14.6
	C7.8,69.8,7.6,61.8,7.5,56c-0.1-2.4-0.1-4.3-0.2-5.5C7,46.4,4.8,38.1,3.9,35.3C2,29.2,1.5,21.5,2.6,14C3.4,8.1,7.8,2.2,15.9,2.2
	c4.3,0,7.4,0.7,10,1.2c1.8,0.4,3.4,0.7,5,0.7c0.5,0.1,3.4,0.3,8-0.7c0.6-0.1,1.2-0.3,1.8-0.4c4.7-1.1,10.5-2.5,16.1,1.5
	c5.2,3.6,5.5,10.2,4.1,24.6c-0.3,3-0.7,5.2-1.2,8.1c-0.3,1.5-0.6,3.3-1,5.3l0,0l-1.1,1.2l-3.4-3.4c1.9-2.5,3.1-5.5,3.1-8.9
	c0-8-6.5-14.5-14.5-14.5s-14.5,6.5-14.5,14.5s6.5,14.5,14.5,14.5c3.9,0,7.5-1.6,10.1-4.1l3.3,3.3l-1.3,1.3l2.8,2.8
	C57.7,49.2,57.6,49.9,57.6,49.9z M42.8,44c-6.9,0-12.5-5.6-12.5-12.5S35.9,19,42.8,19s12.5,5.6,12.5,12.5S49.7,44,42.8,44z"/>
</svg>
